<?xml version="1.0" encoding="UTF-8"?>
<svg id="Layer_2" data-name="Layer 2" xmlns="http://www.w3.org/2000/svg" viewBox="0 0 444.17 56.91" width="385" height="56.91">
  <defs>
    <style>
      .cls-1 {
        fill: #98002e;
      }

      .cls-1, .cls-2 {
        stroke-width: 0px;
      }

      .cls-2 {
        fill: #231f20;
      }
    </style>
  </defs>
  <g id="Layer_1-2" data-name="Layer 1">
    <polygon class="cls-2" points="28.09 56.91 4.11 28.47 28.09 .02 52.08 28.47 28.09 56.91"/>
    <g>
      <path class="cls-1" d="m3.54,53.18V3.92h19.19s2.99-3.54,2.99-3.54H0v56.34h25.77l-2.88-3.54H3.54Z"/>
      <path class="cls-1" d="m30.5.38l2.99,3.54h19.31v49.26h-19.38l-3.06,3.54h25.98V.37h-25.84Z"/>
    </g>
    <path class="cls-2" d="m73.44,27.79V.47h12.09c4.1,0,7.17.55,9.22,1.65,2.04,1.1,3.07,2.76,3.07,4.96,0,1.36-.42,2.55-1.27,3.59-.85,1.04-2.06,1.84-3.65,2.42,2.08.49,3.66,1.33,4.75,2.51,1.09,1.18,1.64,2.64,1.64,4.38,0,2.57-1.02,4.52-3.07,5.84-2.05,1.32-5.08,1.98-9.08,1.98h-13.7Zm9.4-16.38h1.89c1.8,0,3.03-.23,3.67-.68.64-.46.96-1.25.96-2.39,0-1.06-.33-1.8-.99-2.24-.66-.44-1.84-.66-3.54-.66h-1.98v5.98Zm0,11.55h1.98c1.82,0,3.12-.25,3.9-.74.78-.49,1.17-1.32,1.17-2.46,0-1.21-.38-2.09-1.14-2.63-.76-.54-2-.81-3.73-.81h-2.18v6.65Z"/>
    <path class="cls-2" d="m101.6,27.79V.47h9.4v20.28h10.94v7.05h-20.34Z"/>
    <path class="cls-2" d="m122.66,27.79L135.44.47h9.96l12.44,27.32h-9.47l-1.84-4.7h-12.37l-1.93,4.7h-9.57Zm13.65-9.94h8.13l-4-10.11-4.12,10.11Z"/>
    <path class="cls-2" d="m181.3,9.75c-1.37-.86-2.74-1.51-4.1-1.93-1.36-.42-2.78-.64-4.24-.64-2.27,0-4.1.63-5.47,1.9-1.38,1.27-2.07,2.94-2.07,5.02s.69,3.78,2.07,5.06c1.37,1.28,3.2,1.92,5.47,1.92,1.42,0,2.81-.22,4.18-.66,1.36-.44,2.75-1.1,4.16-1.99l.24,7.4c-1.58.82-3.22,1.43-4.93,1.83-1.71.4-3.53.6-5.47.6-2.11,0-4.07-.34-5.87-1.03-1.81-.68-3.43-1.69-4.86-3.02-1.47-1.37-2.57-2.89-3.29-4.56-.73-1.66-1.09-3.51-1.09-5.53s.36-3.89,1.09-5.57c.73-1.68,1.83-3.2,3.29-4.57,1.46-1.36,3.11-2.36,4.96-3.01,1.85-.65,3.95-.98,6.32-.98,1.64,0,3.26.18,4.84.56,1.58.37,3.18.94,4.78,1.71v7.49Z"/>
    <path class="cls-2" d="m185.63,27.79V.47h9.53v12.17L206.05.47h10.2l-11.37,12.64,11.57,14.69h-11.49l-9.79-12.71v12.71h-9.53Z"/>
    <path class="cls-2" d="m230.95,27.79V.47h13.56c2.4,0,4.5.3,6.3.9,1.81.6,3.46,1.54,4.96,2.83,1.55,1.33,2.69,2.8,3.42,4.41.73,1.61,1.09,3.44,1.09,5.52s-.37,3.92-1.1,5.54c-.74,1.62-1.88,3.09-3.41,4.42-1.5,1.28-3.15,2.21-4.96,2.82-1.8.6-3.91.9-6.3.9h-13.56Zm9.53-20.34v13.36h3.56c1.94,0,3.52-.62,4.74-1.85,1.22-1.23,1.84-2.84,1.84-4.81s-.61-3.6-1.84-4.84c-1.23-1.24-2.8-1.86-4.74-1.86h-3.56Z"/>
    <path class="cls-2" d="m262.72,27.79V.47h9.53v27.32h-9.53Z"/>
    <path class="cls-2" d="m273.9,27.79L286.68.47h9.96l12.45,27.32h-9.48l-1.84-4.7h-12.36l-1.93,4.7h-9.58Zm13.66-9.94h8.12l-4-10.11-4.12,10.11Z"/>
    <path class="cls-2" d="m310.58,27.79V.47h8.72l8.06,11,8.05-11h8.68v27.32h-9.47v-14.69l-7.26,9.96-7.31-9.96v14.69h-9.47Z"/>
    <path class="cls-2" d="m346.41,14.13c0-2.03.36-3.89,1.1-5.57.73-1.68,1.82-3.2,3.28-4.57,1.42-1.31,3.03-2.31,4.84-2.98,1.81-.67,3.77-1.01,5.9-1.01s4.1.34,5.92,1.01c1.82.67,3.43,1.67,4.84,2.98,1.46,1.35,2.55,2.87,3.27,4.56.72,1.68,1.08,3.54,1.08,5.59s-.36,3.88-1.08,5.55c-.72,1.67-1.81,3.18-3.27,4.54-1.42,1.33-3.04,2.33-4.87,3.02-1.83.68-3.79,1.03-5.89,1.03s-4.07-.34-5.87-1.03c-1.8-.68-3.43-1.69-4.86-3.02-1.47-1.37-2.57-2.89-3.29-4.56-.73-1.66-1.08-3.51-1.08-5.53Zm9.53-.04c0,1.75.53,3.2,1.57,4.34,1.05,1.14,2.39,1.71,4.01,1.71s2.94-.57,3.99-1.71c1.05-1.14,1.58-2.59,1.58-4.34s-.52-3.2-1.58-4.33c-1.05-1.14-2.38-1.7-3.99-1.7s-2.95.57-4.01,1.7c-1.05,1.13-1.57,2.58-1.57,4.33Z"/>
    <path class="cls-2" d="m378.86,27.79V.47h8.6l12.21,13.69V.47h9.4v27.32h-8.6l-12.21-13.67v13.67h-9.4Z"/>
    <path class="cls-2" d="m413.93,27.79V.47h13.56c2.4,0,4.5.3,6.31.9,1.8.6,3.46,1.54,4.96,2.83,1.55,1.33,2.69,2.8,3.42,4.41.73,1.61,1.09,3.44,1.09,5.52s-.37,3.92-1.1,5.54c-.73,1.62-1.87,3.09-3.41,4.42-1.5,1.28-3.15,2.21-4.96,2.82-1.8.6-3.91.9-6.31.9h-13.56Zm9.54-20.34v13.36h3.55c1.94,0,3.52-.62,4.75-1.85,1.22-1.23,1.83-2.84,1.83-4.81s-.61-3.6-1.83-4.84c-1.23-1.24-2.81-1.86-4.75-1.86h-3.55Z"/>
    <rect class="cls-1" x="73.37" y="33.89" width="370.8" height="2.72"/>
    <g>
      <path class="cls-2" d="m362.46,48.43h5.37v6.78c-1.97.85-3.92,1.28-5.86,1.28-2.65,0-4.76-.77-6.35-2.32-1.58-1.55-2.38-3.45-2.38-5.72,0-2.39.82-4.38,2.46-5.97,1.64-1.59,3.69-2.38,6.16-2.38.9,0,1.75.1,2.56.29.81.19,1.83.55,3.06,1.06v2.34c-1.91-1.11-3.79-1.66-5.67-1.66-1.75,0-3.21.6-4.41,1.79-1.2,1.19-1.8,2.66-1.8,4.39s.6,3.31,1.8,4.46c1.2,1.16,2.73,1.73,4.62,1.73.91,0,2.01-.21,3.28-.63l.22-.07v-3.34h-3.08v-2.03Z"/>
      <path class="cls-2" d="m373.57,56.31v-16h4c1.62,0,2.9.4,3.85,1.2.95.8,1.43,1.89,1.43,3.25,0,.93-.24,1.74-.7,2.42-.47.68-1.14,1.19-2.01,1.52.52.33,1.02.79,1.51,1.37.49.58,1.18,1.59,2.07,3.03.56.91,1,1.59,1.34,2.05l.85,1.15h-2.72l-.7-1.05s-.07-.1-.14-.2l-.44-.63-.71-1.17-.76-1.25c-.48-.66-.91-1.18-1.3-1.57-.39-.39-.75-.67-1.07-.84-.32-.17-.85-.26-1.6-.26h-.6v6.96h-2.29Zm2.97-14.06h-.68v5.06h.87c1.16,0,1.95-.1,2.38-.3.43-.2.76-.5,1-.9.24-.4.36-.86.36-1.37s-.13-.96-.4-1.37c-.26-.41-.64-.7-1.12-.87-.48-.17-1.28-.25-2.4-.25Z"/>
      <path class="cls-2" d="m396.43,40.1c2.47,0,4.53.78,6.17,2.34,1.64,1.56,2.47,3.52,2.47,5.88s-.83,4.31-2.49,5.85c-1.66,1.54-3.75,2.32-6.28,2.32s-4.42-.77-6.02-2.32c-1.61-1.54-2.41-3.48-2.41-5.81s.81-4.36,2.42-5.92c1.62-1.56,3.66-2.34,6.13-2.34Zm.1,2.18c-1.83,0-3.33.57-4.51,1.71-1.18,1.14-1.76,2.6-1.76,4.37s.59,3.15,1.77,4.29c1.18,1.14,2.66,1.71,4.44,1.71s3.27-.58,4.47-1.75c1.19-1.16,1.79-2.61,1.79-4.35s-.6-3.11-1.79-4.26c-1.19-1.15-2.66-1.73-4.4-1.73Z"/>
      <path class="cls-2" d="m421.33,40.32h2.29v9.08c0,1.23-.09,2.16-.27,2.78-.18.63-.4,1.15-.66,1.56-.26.42-.58.79-.96,1.12-1.26,1.09-2.92,1.64-4.96,1.64s-3.75-.54-5-1.63c-.38-.34-.7-.71-.97-1.13-.26-.42-.48-.93-.65-1.53-.17-.6-.26-1.55-.26-2.84v-9.05h2.29v9.08c0,1.5.17,2.55.52,3.14.34.59.87,1.06,1.57,1.41.7.35,1.53.53,2.48.53,1.35,0,2.46-.36,3.31-1.07.45-.38.77-.83.97-1.35.2-.52.3-1.41.3-2.67v-9.08Z"/>
      <path class="cls-2" d="m429.03,56.31v-16h5.07c1.52,0,2.75.41,3.65,1.23.91.82,1.37,1.93,1.37,3.31,0,.93-.23,1.75-.7,2.47-.46.72-1.1,1.24-1.91,1.56-.81.32-1.97.48-3.48.48h-1.69v6.94h-2.29Zm4.66-13.97h-2.37v5h2.5c.93,0,1.65-.22,2.15-.66.5-.44.76-1.07.76-1.88,0-1.64-1.01-2.46-3.04-2.46Z"/>
    </g>
  </g>
</svg>